# xmcd
#
# Track frame offsets:
#       150
#       16823
#       32442
#       49509
#       66149
#       81780
#       99711
#       117669
#       134436
#       149132
#       166023
#       183206
#       198520
#       214811
#
# Disc length: 3085 seconds
#
#
# Revision: 0
# Processed by: cddbd v1.5.1PL0 Copyright (c) Steve Scherf et al.
# Submitted via: Visual Ripper tool of Visual MP3 v4.18
#
DISCID=c40c0b0e
DTITLE=Girls Aloud - What Will The Neighbours Say?
DYEAR=2004
DGENRE=
TTITLE0=The Show
TTITLE1=Love Machine
TTITLE2=I'll Stand By You
TTITLE3=Jump
TTITLE4=Wake Me Up
TTITLE5=Deadlines and Diets
TTITLE6=Big Brother
TTITLE7=Hear Me Out
TTITLE8=Graffiti My Soul
TTITLE9=Real Life
TTITLE10=Here We Go
TTITLE11=Thank Me Daddy
TTITLE12=I Say A Prayer For You
TTITLE13=100 Different Ways
EXTD=
EXTT0=
EXTT1=
EXTT2=
EXTT3=
EXTT4=
EXTT5=
EXTT6=
EXTT7=
EXTT8=
EXTT9=
EXTT10=
EXTT11=
EXTT12=
EXTT13=
PLAYORDER=
